<svg width="44" height="30" viewBox="0 0 44 30" fill="none" xmlns="http://www.w3.org/2000/svg">
<path fill-rule="evenodd" clip-rule="evenodd" d="M42.4471 11.6045L34.8323 7.16047V27.8055H43.735V29.8055H0.210697V27.8055H4.16745V15.0855L0.479757 16.0185L0 14.0785L20.862 8.80547H23.9502C23.6096 9.62277 23.3832 10.484 23.2776 11.3645L22.7998 15.3395L27.908 12.3575V27.8055H32.8539V7.16147L25.2411 11.6055C25.4628 9.74081 26.3681 8.028 27.7784 6.80547H23.703C24.4581 5.78553 25.4582 4.97722 26.6086 4.45699C27.759 3.93675 29.0216 3.72181 30.2771 3.83247L24.7465 0.604471C25.8055 0.146209 26.9556 -0.0560664 28.1054 0.0137182C29.2552 0.0835028 30.3731 0.423424 31.3702 1.00647C32.3979 1.60647 33.2298 2.41647 33.8431 3.35347C34.476 2.38765 35.3227 1.5841 36.3161 1.00647C37.3135 0.423251 38.4317 0.0832395 39.5819 0.0134547C40.732 -0.05633 41.8824 0.146036 42.9417 0.604471L37.4092 3.83247C38.6646 3.72171 39.9273 3.93662 41.0777 4.45686C42.2281 4.9771 43.2282 5.78546 43.9833 6.80547H39.9078C41.3192 8.02742 42.2253 9.7404 42.4471 11.6055V11.6045ZM23.9512 27.8055V17.8055H18.0161V27.8055H23.9512ZM13.0702 19.8055C13.0702 20.3359 12.8617 20.8446 12.4907 21.2197C12.1197 21.5948 11.6165 21.8055 11.0918 21.8055C10.5671 21.8055 10.0639 21.5948 9.69285 21.2197C9.32184 20.8446 9.1134 20.3359 9.1134 19.8055C9.1134 19.275 9.32184 18.7663 9.69285 18.3913C10.0639 18.0162 10.5671 17.8055 11.0918 17.8055C11.6165 17.8055 12.1197 18.0162 12.4907 18.3913C12.8617 18.7663 13.0702 19.275 13.0702 19.8055V19.8055Z" fill="#6366F1"/>
</svg>
